HIERARCHY
ROOT Hips
{
	OFFSET 0.000000 0.000000 0.000000
	CHANNELS 6 Xposition Yposition Zposition Zrotation Yrotation Xrotation 
	JOINT LHipJoint
	{
		OFFSET 0.000000 0.000000 0.000000
		CHANNELS 3 Zrotation Yrotation Xrotation
		JOINT LeftUpLeg
		{
			OFFSET 1.363060 -1.794630 0.839290
			CHANNELS 3 Zrotation Yrotation Xrotation
			JOINT LeftLeg
			{
				OFFSET 2.448110 -6.726130 0.000000
				CHANNELS 3 Zrotation Yrotation Xrotation
				JOINT LeftFoot
				{
					OFFSET 2.562200 -7.039590 0.000000
					CHANNELS 3 Zrotation Yrotation Xrotation
					JOINT LeftToeBase
					{
						OFFSET 0.157640 -0.433110 2.322550
						CHANNELS 3 Zrotation Yrotation Xrotation
						End Site
						{
							OFFSET 0.000000 0.000000 0.000000
						}
					}
				}
			}
		}
	}
	JOINT RHipJoint
	{
		OFFSET 0.000000 0.000000 0.000000
		CHANNELS 3 Zrotation Yrotation Xrotation
		JOINT RightUpLeg
		{
			OFFSET -1.305520 -1.794630 0.839290
			CHANNELS 3 Zrotation Yrotation Xrotation
			JOINT RightLeg
			{
				OFFSET -2.542530 -6.985550 0.000000
				CHANNELS 3 Zrotation Yrotation Xrotation
				JOINT RightFoot
				{
					OFFSET -2.568260 -7.056230 0.000000
					CHANNELS 3 Zrotation Yrotation Xrotation
					JOINT RightToeBase
					{
						OFFSET -0.164730 -0.452590 2.363150
						CHANNELS 3 Zrotation Yrotation Xrotation
						End Site
						{
							OFFSET 0.000000 0.000000 0.000000
						}
					}
				}
			}
		}
	}
	JOINT LowerBack
	{
		OFFSET 0.000000 0.000000 0.000000
		CHANNELS 3 Zrotation Yrotation Xrotation
		JOINT Spine
		{
			OFFSET 0.028270 2.035590 -0.193380
			CHANNELS 3 Zrotation Yrotation Xrotation
			JOINT Spine1
			{
				OFFSET 0.056720 2.048850 -0.042750
				CHANNELS 3 Zrotation Yrotation Xrotation
				JOINT Neck
				{
					OFFSET 0.000000 0.000000 0.000000
					CHANNELS 3 Zrotation Yrotation Xrotation
					JOINT Neck1
					{
						OFFSET -0.054170 1.746240 0.172020
						CHANNELS 3 Zrotation Yrotation Xrotation
						JOINT Head
						{
							OFFSET 0.104070 1.761360 -0.123970
							CHANNELS 3 Zrotation Yrotation Xrotation
							End Site
							{
								OFFSET 0.000000 0.000000 0.000000
							}
						}
					}
				}
				JOINT LeftShoulder
				{
					OFFSET 0.000000 0.000000 0.000000
					CHANNELS 3 Zrotation Yrotation Xrotation
					JOINT LeftArm
					{
						OFFSET 3.362410 1.200890 -0.311210
						CHANNELS 3 Zrotation Yrotation Xrotation
						JOINT LeftForeArm
						{
							OFFSET 4.983000 -0.000000 -0.000000
							CHANNELS 3 Zrotation Yrotation Xrotation
							JOINT LeftHand
							{
								OFFSET 3.483560 -0.000000 -0.000000
								CHANNELS 3 Zrotation Yrotation Xrotation
								JOINT LeftFingerBase
								{
									OFFSET 0.000000 0.000000 0.000000
									CHANNELS 3 Zrotation Yrotation Xrotation
									JOINT LeftHandIndex1
									{
										OFFSET 0.715260 -0.000000 -0.000000
										CHANNELS 3 Zrotation Yrotation Xrotation
										End Site
										{
											OFFSET 0.000000 0.000000 0.000000
										}
									}
								}
								JOINT LThumb
								{
									OFFSET 0.000000 0.000000 0.000000
									CHANNELS 3 Zrotation Yrotation Xrotation
									End Site
									{
										OFFSET 0.000000 0.000000 0.000000
									}
								}
							}
						}
					}
				}
				JOINT RightShoulder
				{
					OFFSET 0.000000 0.000000 0.000000
					CHANNELS 3 Zrotation Yrotation Xrotation
					JOINT RightArm
					{
						OFFSET -3.136600 1.374050 -0.404650
						CHANNELS 3 Zrotation Yrotation Xrotation
						JOINT RightForeArm
						{
							OFFSET -5.241900 -0.000000 -0.000000
							CHANNELS 3 Zrotation Yrotation Xrotation
							JOINT RightHand
							{
								OFFSET -3.444170 -0.000000 -0.000000
								CHANNELS 3 Zrotation Yrotation Xrotation
								JOINT RightFingerBase
								{
									OFFSET 0.000000 0.000000 0.000000
									CHANNELS 3 Zrotation Yrotation Xrotation
									JOINT RightHandIndex1
									{
										OFFSET -0.622530 -0.000000 -0.000000
										CHANNELS 3 Zrotation Yrotation Xrotation
										End Site
										{
											OFFSET 0.000000 0.000000 0.000000
										}
									}
								}
								JOINT RThumb
								{
									OFFSET 0.000000 0.000000 0.000000
									CHANNELS 3 Zrotation Yrotation Xrotation
									End Site
									{
										OFFSET 0.000000 0.000000 0.000000
									}
								}
							}
						}
					}
				}
			}
		}
	}
}
MOTION
Frames: 6
Frame Time: 0.008333
15.796634 16.898563 1.691910 83.662533 -87.858495 -36.953815 -8.761890 -0.266318 3.853387 -8.938738 -8.806710 -52.609298 -2.628380 -1.798133 11.593783 3.055588 12.403278 -9.657737 0.457000 0.000000 -41.850899 8.696088 0.350410 4.379032 3.606310 4.755694 -53.156028 2.646478 1.247343 11.933549 -2.959377 -8.949654 -10.954733 -0.594901 -0.000000 -57.911900 2.471445 -2.162420 -5.245220 -0.144513 -2.534732 -3.897425 -5.792214 -2.680481 1.626284 9.516405 -12.329962 -11.269078 -2.272280 -0.119779 -1.245686 0.000000 0.000000 0.000000 -1.965178 8.654916 2.492153 -65.565490 25.806421 21.591252 -2.533106 -38.619670 0.005357 -1.315450 -3.797176 0.041681 -0.070236 -0.002326 -0.000000 0.000000 0.000000 0.000000 0.000000 0.000000 0.000000 12.931611 -10.522271 2.884827 70.521270 -15.458869 -1.159119 2.943306 25.780444 0.008159 -4.499836 5.636592 -0.232736 0.152883 -0.099632 0.000000 0.000000 0.000000 0.000000 0.000000 0.000000 0.000000 
15.775617 16.839094 1.692487 87.008594 -87.707155 -39.287451 -8.695620 -0.288519 3.973915 -8.850296 -9.456920 -54.652704 -2.609284 -1.645527 13.594057 3.232809 12.560274 -10.881647 0.182000 0.000000 -41.986100 8.640230 0.380748 4.497068 3.279487 4.997922 -55.519168 2.645168 0.962361 14.383652 -3.055733 -8.724551 -12.296642 -0.340700 -0.000001 -57.653301 2.340297 -2.156417 -5.394358 -0.182748 -2.526602 -3.941136 -5.800338 -2.675769 1.617200 9.659368 -12.421154 -11.458751 -2.288660 -0.117817 -1.316123 0.000000 0.000000 0.000000 -2.046129 8.893840 2.543590 -65.706455 26.011007 21.224404 -2.496580 -38.898213 0.005488 -1.180497 -3.862377 0.037884 -0.069591 0.001778 -0.000000 0.000000 0.000000 0.000000 0.000000 0.000000 0.000000 13.277262 -10.571290 2.929133 70.409276 -15.811638 -1.308837 2.904011 26.146120 0.008053 -4.395681 5.706031 -0.230339 0.151038 -0.103380 0.000000 0.000000 0.000000 0.000000 0.000000 0.000000 0.000000 
15.755032 16.770685 1.692837 90.184323 -87.545877 -41.435364 -8.626822 -0.301635 4.091330 -8.789390 -10.087263 -56.821460 -2.596282 -1.462183 15.801705 3.410611 12.652274 -12.228137 -0.134600 -0.000000 -42.132300 8.590679 0.417138 4.620164 2.921826 5.238652 -57.991460 2.635693 0.645956 17.023623 -3.154905 -8.483051 -13.738544 -0.070800 0.000001 -57.317900 2.200654 -2.149149 -5.549931 -0.225731 -2.517344 -3.988413 -5.815205 -2.670297 1.602931 9.817340 -12.495433 -11.653786 -2.315162 -0.116644 -1.389220 0.000000 0.000000 0.000000 -2.152447 9.113772 2.598505 -65.858899 26.130248 20.785630 -2.457967 -39.115438 0.005588 -1.003417 -3.919790 0.032384 -0.069017 0.005972 -0.000000 0.000000 0.000000 0.000000 0.000000 0.000000 0.000000 13.677123 -10.601465 2.976277 70.282354 -16.078754 -1.508195 2.860854 26.466500 0.007821 -4.326792 5.755535 -0.228838 0.149218 -0.107363 0.000000 0.000000 0.000000 0.000000 0.000000 0.000000 0.000000 
15.734896 16.692449 1.692960 93.043518 -87.375965 -43.251061 -8.555055 -0.304661 4.209156 -8.747567 -10.708543 -59.114789 -2.585869 -1.247070 18.204925 3.588998 12.692048 -13.674609 -0.484100 0.000000 -42.274300 8.550921 0.461759 4.748826 2.534818 5.471694 -60.572980 2.615644 0.298099 19.844455 -3.255851 -8.231426 -15.259031 0.209100 -0.000000 -56.910700 2.055057 -2.143281 -5.717320 -0.271079 -2.509809 -4.036347 -5.830875 -2.666668 1.598056 9.991357 -12.592572 -11.866930 -2.344607 -0.115437 -1.468518 0.000000 0.000000 0.000000 -2.266238 9.366838 2.655211 -66.023565 26.102216 20.334502 -2.417926 -39.232894 0.005686 -0.773848 -3.982665 0.024987 -0.068755 0.010406 -0.000000 0.000000 0.000000 0.000000 0.000000 0.000000 0.000000 14.112352 -10.656533 3.022180 70.125348 -16.211041 -1.660881 2.813968 26.717251 0.007470 -4.324199 5.790151 -0.230142 0.147793 -0.111345 0.000000 0.000000 0.000000 0.000000 0.000000 0.000000 0.000000 
15.715126 16.603671 1.692936 95.432329 -87.201628 -44.580553 -8.482193 -0.298021 4.331366 -8.712057 -11.326816 -61.528040 -2.573493 -0.999868 20.790533 3.767185 12.691342 -15.194133 -0.857000 -0.000001 -42.389401 8.523146 0.514326 4.884917 2.123446 5.693245 -63.254873 2.582244 -0.079132 22.827418 -3.358158 -7.980901 -16.830158 0.492700 0.000000 -56.436300 1.912098 -2.139620 -5.904541 -0.317630 -2.505887 -4.090630 -5.851818 -2.667115 1.587394 10.175031 -12.667662 -12.077316 -2.381659 -0.114975 -1.547616 0.000000 0.000000 0.000000 -2.407452 9.588869 2.712920 -66.199048 26.030805 19.792960 -2.376449 -39.311303 0.005743 -0.515405 -4.045973 0.016289 -0.068518 0.014909 -0.000000 0.000000 0.000000 0.000000 0.000000 0.000000 0.000000 14.580443 -10.691294 3.070030 69.960996 -16.273652 -1.866152 2.764834 26.922885 0.007021 -4.352608 5.812433 -0.232545 0.146464 -0.115464 0.000000 0.000000 0.000000 0.000000 0.000000 0.000000 0.000000 
15.695398 16.503446 1.692828 97.264228 -87.024447 -45.333831 -8.409590 -0.283075 4.463607 -8.665920 -11.956787 -64.061463 -2.552661 -0.722026 23.542466 3.946228 12.670338 -16.757921 -1.244100 -0.000000 -42.447600 8.509260 0.575359 5.030179 1.689569 5.896772 -66.036892 2.532957 -0.483830 25.957697 -3.460769 -7.738916 -18.426086 0.774499 -0.000000 -55.899400 1.775665 -2.140610 -6.120367 -0.363197 -2.508501 -4.151654 -5.874645 -2.674519 1.576419 10.364166 -12.730609 -12.285674 -2.422547 -0.114929 -1.626425 0.000000 0.000000 0.000000 -2.568613 9.795655 2.770631 -66.385766 25.907008 19.180069 -2.334403 -39.345747 0.005768 -0.235332 -4.117740 0.006391 -0.068350 0.019554 -0.000000 0.000000 0.000000 0.000000 0.000000 0.000000 0.000000 15.062762 -10.718571 3.117933 69.790804 -16.256992 -2.097035 2.714224 27.072206 0.006495 -4.417100 5.828485 -0.236648 0.145346 -0.119618 0.000000 0.000000 0.000000 0.000000 0.000000 0.000000 0.000000 
